<svg xmlns="http://www.w3.org/2000/svg" width="1024" height="1024" viewBox="0 0 1024 1024">
<rect width="1024" height="1024" fill="#E7D7B1"/><clipPath id="clip831657"><rect x="0" y="0" width="1024" height="1024"/></clipPath>
<g clip-path="url(#clip831657)" opacity="0.05">
<line x1="-55.3" y1="0.4" x2="-1080.1" y2="1023.2" stroke="#6E3A20" stroke-width="1.4"/>
<line x1="-28.6" y1="-0.8" x2="-1051.9" y2="1024.4" stroke="#6E3A20" stroke-width="1.4"/>
<line x1="-0.6" y1="-0.3" x2="-1024.1" y2="1023.5" stroke="#6E3A20" stroke-width="1.4"/>
<line x1="28.7" y1="0.5" x2="-995.4" y2="1024.0" stroke="#6E3A20" stroke-width="1.4"/>
<line x1="56.6" y1="-0.3" x2="-968.1" y2="1024.3" stroke="#6E3A20" stroke-width="1.4"/>
<line x1="83.9" y1="0.0" x2="-940.0" y2="1024.8" stroke="#6E3A20" stroke-width="1.4"/>
<line x1="112.6" y1="-0.2" x2="-912.4" y2="1024.7" stroke="#6E3A20" stroke-width="1.4"/>
<line x1="139.6" y1="-0.0" x2="-883.6" y2="1024.0" stroke="#6E3A20" stroke-width="1.4"/>
<line x1="168.1" y1="-0.6" x2="-856.3" y2="1023.3" stroke="#6E3A20" stroke-width="1.4"/>
<line x1="195.2" y1="-0.4" x2="-828.6" y2="1024.0" stroke="#6E3A20" stroke-width="1.4"/>
<line x1="224.8" y1="0.1" x2="-800.1" y2="1023.2" stroke="#6E3A20" stroke-width="1.4"/>
<line x1="252.0" y1="0.4" x2="-771.6" y2="1024.1" stroke="#6E3A20" stroke-width="1.4"/>
<line x1="280.6" y1="0.2" x2="-743.9" y2="1024.2" stroke="#6E3A20" stroke-width="1.4"/>
<line x1="308.1" y1="-0.1" x2="-715.8" y2="1024.5" stroke="#6E3A20" stroke-width="1.4"/>
<line x1="336.0" y1="-0.5" x2="-687.6" y2="1024.3" stroke="#6E3A20" stroke-width="1.4"/>
<line x1="364.6" y1="-0.0" x2="-660.7" y2="1023.5" stroke="#6E3A20" stroke-width="1.4"/>
<line x1="391.3" y1="-0.6" x2="-631.9" y2="1024.0" stroke="#6E3A20" stroke-width="1.4"/>
<line x1="419.3" y1="-0.1" x2="-604.7" y2="1024.6" stroke="#6E3A20" stroke-width="1.4"/>
<line x1="447.9" y1="-0.8" x2="-576.1" y2="1023.9" stroke="#6E3A20" stroke-width="1.4"/>
<line x1="476.7" y1="-0.2" x2="-548.5" y2="1024.4" stroke="#6E3A20" stroke-width="1.4"/>
<line x1="503.7" y1="0.5" x2="-520.5" y2="1023.7" stroke="#6E3A20" stroke-width="1.4"/>
<line x1="532.8" y1="0.3" x2="-491.2" y2="1024.2" stroke="#6E3A20" stroke-width="1.4"/>
<line x1="559.9" y1="-0.4" x2="-464.3" y2="1023.9" stroke="#6E3A20" stroke-width="1.4"/>
<line x1="588.0" y1="-0.5" x2="-436.6" y2="1023.6" stroke="#6E3A20" stroke-width="1.4"/>
<line x1="615.7" y1="-0.5" x2="-408.4" y2="1023.6" stroke="#6E3A20" stroke-width="1.4"/>
<line x1="644.6" y1="0.2" x2="-379.4" y2="1023.4" stroke="#6E3A20" stroke-width="1.4"/>
<line x1="672.2" y1="-0.1" x2="-352.1" y2="1023.5" stroke="#6E3A20" stroke-width="1.4"/>
<line x1="699.2" y1="0.5" x2="-324.4" y2="1023.4" stroke="#6E3A20" stroke-width="1.4"/>
<line x1="728.0" y1="-0.1" x2="-295.3" y2="1023.7" stroke="#6E3A20" stroke-width="1.4"/>
<line x1="755.3" y1="0.3" x2="-268.8" y2="1024.0" stroke="#6E3A20" stroke-width="1.4"/>
<line x1="784.0" y1="0.2" x2="-240.2" y2="1024.6" stroke="#6E3A20" stroke-width="1.4"/>
<line x1="811.5" y1="-0.5" x2="-212.6" y2="1024.6" stroke="#6E3A20" stroke-width="1.4"/>
<line x1="839.7" y1="0.8" x2="-183.6" y2="1023.3" stroke="#6E3A20" stroke-width="1.4"/>
<line x1="867.9" y1="-0.8" x2="-155.4" y2="1023.5" stroke="#6E3A20" stroke-width="1.4"/>
<line x1="896.7" y1="0.6" x2="-127.5" y2="1024.2" stroke="#6E3A20" stroke-width="1.4"/>
<line x1="924.6" y1="0.1" x2="-100.3" y2="1024.6" stroke="#6E3A20" stroke-width="1.4"/>
<line x1="952.6" y1="-0.2" x2="-72.3" y2="1023.5" stroke="#6E3A20" stroke-width="1.4"/>
<line x1="980.0" y1="-0.3" x2="-44.1" y2="1024.5" stroke="#6E3A20" stroke-width="1.4"/>
<line x1="1008.4" y1="0.2" x2="-15.7" y2="1023.9" stroke="#6E3A20" stroke-width="1.4"/>
<line x1="1036.5" y1="-0.3" x2="11.2" y2="1024.2" stroke="#6E3A20" stroke-width="1.4"/>
<line x1="1064.5" y1="0.8" x2="40.1" y2="1024.0" stroke="#6E3A20" stroke-width="1.4"/>
<line x1="1091.8" y1="-0.1" x2="67.7" y2="1024.4" stroke="#6E3A20" stroke-width="1.4"/>
<line x1="1120.8" y1="-0.7" x2="95.6" y2="1023.9" stroke="#6E3A20" stroke-width="1.4"/>
<line x1="1148.4" y1="0.6" x2="123.9" y2="1023.4" stroke="#6E3A20" stroke-width="1.4"/>
<line x1="1175.5" y1="0.7" x2="151.9" y2="1024.1" stroke="#6E3A20" stroke-width="1.4"/>
<line x1="1204.4" y1="-0.8" x2="179.3" y2="1023.6" stroke="#6E3A20" stroke-width="1.4"/>
<line x1="1232.8" y1="0.6" x2="207.6" y2="1024.4" stroke="#6E3A20" stroke-width="1.4"/>
<line x1="1260.6" y1="-0.7" x2="235.6" y2="1024.2" stroke="#6E3A20" stroke-width="1.4"/>
<line x1="1287.3" y1="-0.7" x2="263.5" y2="1023.8" stroke="#6E3A20" stroke-width="1.4"/>
<line x1="1316.5" y1="-0.5" x2="292.7" y2="1023.4" stroke="#6E3A20" stroke-width="1.4"/>
<line x1="1343.3" y1="0.1" x2="320.5" y2="1023.3" stroke="#6E3A20" stroke-width="1.4"/>
<line x1="1372.4" y1="0.5" x2="347.7" y2="1024.2" stroke="#6E3A20" stroke-width="1.4"/>
<line x1="1400.8" y1="0.1" x2="376.2" y2="1024.6" stroke="#6E3A20" stroke-width="1.4"/>
<line x1="1428.5" y1="-0.5" x2="403.5" y2="1024.1" stroke="#6E3A20" stroke-width="1.4"/>
<line x1="1456.2" y1="-0.7" x2="431.9" y2="1023.4" stroke="#6E3A20" stroke-width="1.4"/>
<line x1="1483.9" y1="0.7" x2="460.6" y2="1024.0" stroke="#6E3A20" stroke-width="1.4"/>
<line x1="1511.9" y1="0.7" x2="488.2" y2="1023.8" stroke="#6E3A20" stroke-width="1.4"/>
<line x1="1539.2" y1="-0.6" x2="515.8" y2="1024.7" stroke="#6E3A20" stroke-width="1.4"/>
<line x1="1568.5" y1="0.5" x2="544.6" y2="1023.5" stroke="#6E3A20" stroke-width="1.4"/>
<line x1="1596.1" y1="0.0" x2="571.5" y2="1023.9" stroke="#6E3A20" stroke-width="1.4"/>
<line x1="1623.9" y1="-0.2" x2="600.2" y2="1024.6" stroke="#6E3A20" stroke-width="1.4"/>
<line x1="1651.7" y1="-0.2" x2="628.5" y2="1024.2" stroke="#6E3A20" stroke-width="1.4"/>
<line x1="1679.5" y1="0.1" x2="656.1" y2="1023.5" stroke="#6E3A20" stroke-width="1.4"/>
<line x1="1707.5" y1="-0.5" x2="683.7" y2="1023.7" stroke="#6E3A20" stroke-width="1.4"/>
<line x1="1735.8" y1="0.8" x2="711.3" y2="1024.6" stroke="#6E3A20" stroke-width="1.4"/>
<line x1="1764.5" y1="0.8" x2="739.3" y2="1024.0" stroke="#6E3A20" stroke-width="1.4"/>
<line x1="1792.2" y1="-0.2" x2="767.5" y2="1024.1" stroke="#6E3A20" stroke-width="1.4"/>
<line x1="1820.6" y1="-0.1" x2="796.5" y2="1024.3" stroke="#6E3A20" stroke-width="1.4"/>
<line x1="1847.8" y1="0.5" x2="823.7" y2="1024.6" stroke="#6E3A20" stroke-width="1.4"/>
<line x1="1876.3" y1="0.1" x2="851.9" y2="1024.5" stroke="#6E3A20" stroke-width="1.4"/>
<line x1="1903.6" y1="-0.6" x2="880.7" y2="1024.8" stroke="#6E3A20" stroke-width="1.4"/>
<line x1="1932.2" y1="0.4" x2="907.3" y2="1023.3" stroke="#6E3A20" stroke-width="1.4"/>
<line x1="1959.2" y1="0.5" x2="936.0" y2="1024.1" stroke="#6E3A20" stroke-width="1.4"/>
<line x1="1988.6" y1="-0.2" x2="963.4" y2="1023.9" stroke="#6E3A20" stroke-width="1.4"/>
<line x1="2015.5" y1="0.1" x2="992.6" y2="1024.2" stroke="#6E3A20" stroke-width="1.4"/>
<line x1="2043.7" y1="0.5" x2="1019.3" y2="1024.0" stroke="#6E3A20" stroke-width="1.4"/>
<line x1="2072.5" y1="-0.0" x2="1048.7" y2="1024.2" stroke="#6E3A20" stroke-width="1.4"/>
</g>
<path d="M113.1,913.4 L911.4,913.8 L911.8,978.4 L113.2,978.1 Z" fill="#8A5E1E" stroke="none"/>
<path d="M112.8,912.8 L910.8,912.6 L909.6,978.4 L112.8,977.3 Z" fill="none" stroke="#241C16" stroke-width="5.0" stroke-linecap="round" stroke-linejoin="round" opacity="0.92"/>
<path d="M113.4,913.1 L911.1,915.9 L910.6,976.5 L112.7,978.3 Z" fill="none" stroke="#241C16" stroke-width="5.0" stroke-linecap="round" stroke-linejoin="round" opacity="0.92"/>
<g transform="rotate(11 512.0 914.0)"><path d="M272.0,658.4 L752.0,658.4 L751.5,908.4 L271.8,907.8 Z" fill="#C08A2E" stroke="none"/>
<path d="M272.4,657.6 L751.7,658.6 L752.0,671.9 L285.5,671.4 L286.2,907.4 L272.4,908.6 Z" fill="#E6BE6A" opacity="0.55" stroke="none"/><clipPath id="clip161445"><rect x="272.0" y="795.5" width="480" height="112.5"/></clipPath>
<g clip-path="url(#clip161445)" opacity="0.18">
<line x1="253.3" y1="795.0" x2="141.6" y2="908.1" stroke="#241C16" stroke-width="1.4"/>
<line x1="262.2" y1="795.3" x2="149.8" y2="908.3" stroke="#241C16" stroke-width="1.4"/>
<line x1="272.3" y1="795.9" x2="160.0" y2="907.7" stroke="#241C16" stroke-width="1.4"/>
<line x1="281.1" y1="796.2" x2="167.9" y2="908.2" stroke="#241C16" stroke-width="1.4"/>
<line x1="289.4" y1="796.1" x2="178.2" y2="907.8" stroke="#241C16" stroke-width="1.4"/>
<line x1="298.5" y1="796.0" x2="187.0" y2="908.2" stroke="#241C16" stroke-width="1.4"/>
<line x1="308.7" y1="796.1" x2="196.1" y2="907.9" stroke="#241C16" stroke-width="1.4"/>
<line x1="316.6" y1="795.1" x2="204.4" y2="908.8" stroke="#241C16" stroke-width="1.4"/>
<line x1="325.2" y1="794.7" x2="213.5" y2="907.4" stroke="#241C16" stroke-width="1.4"/>
<line x1="335.4" y1="795.3" x2="222.6" y2="907.6" stroke="#241C16" stroke-width="1.4"/>
<line x1="343.4" y1="795.4" x2="231.1" y2="907.6" stroke="#241C16" stroke-width="1.4"/>
<line x1="352.4" y1="795.1" x2="240.7" y2="908.6" stroke="#241C16" stroke-width="1.4"/>
<line x1="362.6" y1="795.1" x2="248.7" y2="907.3" stroke="#241C16" stroke-width="1.4"/>
<line x1="370.9" y1="795.8" x2="258.6" y2="907.3" stroke="#241C16" stroke-width="1.4"/>
<line x1="379.4" y1="796.0" x2="268.2" y2="908.5" stroke="#241C16" stroke-width="1.4"/>
<line x1="389.5" y1="795.1" x2="276.6" y2="907.9" stroke="#241C16" stroke-width="1.4"/>
<line x1="398.0" y1="795.3" x2="285.8" y2="908.3" stroke="#241C16" stroke-width="1.4"/>
<line x1="407.8" y1="795.7" x2="293.9" y2="908.6" stroke="#241C16" stroke-width="1.4"/>
<line x1="416.7" y1="795.2" x2="303.4" y2="908.3" stroke="#241C16" stroke-width="1.4"/>
<line x1="425.4" y1="796.1" x2="311.7" y2="908.7" stroke="#241C16" stroke-width="1.4"/>
<line x1="434.6" y1="795.1" x2="320.9" y2="907.4" stroke="#241C16" stroke-width="1.4"/>
<line x1="442.7" y1="795.3" x2="330.4" y2="908.2" stroke="#241C16" stroke-width="1.4"/>
<line x1="452.6" y1="795.3" x2="340.0" y2="908.8" stroke="#241C16" stroke-width="1.4"/>
<line x1="461.4" y1="795.0" x2="348.3" y2="908.2" stroke="#241C16" stroke-width="1.4"/>
<line x1="470.6" y1="795.9" x2="357.0" y2="907.9" stroke="#241C16" stroke-width="1.4"/>
<line x1="479.1" y1="795.9" x2="366.0" y2="908.6" stroke="#241C16" stroke-width="1.4"/>
<line x1="488.1" y1="795.9" x2="375.3" y2="907.8" stroke="#241C16" stroke-width="1.4"/>
<line x1="496.9" y1="796.2" x2="383.7" y2="908.5" stroke="#241C16" stroke-width="1.4"/>
<line x1="506.5" y1="795.1" x2="393.7" y2="908.4" stroke="#241C16" stroke-width="1.4"/>
<line x1="515.8" y1="795.9" x2="403.2" y2="907.4" stroke="#241C16" stroke-width="1.4"/>
<line x1="524.2" y1="795.8" x2="411.5" y2="907.6" stroke="#241C16" stroke-width="1.4"/>
<line x1="532.7" y1="794.8" x2="419.8" y2="907.6" stroke="#241C16" stroke-width="1.4"/>
<line x1="541.6" y1="795.9" x2="430.0" y2="907.5" stroke="#241C16" stroke-width="1.4"/>
<line x1="550.5" y1="795.6" x2="438.8" y2="908.1" stroke="#241C16" stroke-width="1.4"/>
<line x1="560.3" y1="794.9" x2="447.0" y2="908.3" stroke="#241C16" stroke-width="1.4"/>
<line x1="568.9" y1="796.0" x2="456.8" y2="908.3" stroke="#241C16" stroke-width="1.4"/>
<line x1="577.3" y1="795.9" x2="465.7" y2="907.2" stroke="#241C16" stroke-width="1.4"/>
<line x1="586.8" y1="795.0" x2="474.1" y2="907.9" stroke="#241C16" stroke-width="1.4"/>
<line x1="595.6" y1="796.0" x2="484.1" y2="907.8" stroke="#241C16" stroke-width="1.4"/>
<line x1="605.2" y1="794.9" x2="493.1" y2="907.5" stroke="#241C16" stroke-width="1.4"/>
<line x1="613.8" y1="795.5" x2="501.8" y2="907.5" stroke="#241C16" stroke-width="1.4"/>
<line x1="623.2" y1="796.1" x2="510.8" y2="908.1" stroke="#241C16" stroke-width="1.4"/>
<line x1="631.6" y1="795.9" x2="519.3" y2="908.0" stroke="#241C16" stroke-width="1.4"/>
<line x1="641.4" y1="795.6" x2="528.5" y2="907.6" stroke="#241C16" stroke-width="1.4"/>
<line x1="649.6" y1="796.2" x2="536.9" y2="908.3" stroke="#241C16" stroke-width="1.4"/>
<line x1="658.5" y1="796.0" x2="546.7" y2="908.3" stroke="#241C16" stroke-width="1.4"/>
<line x1="668.3" y1="795.7" x2="554.9" y2="907.3" stroke="#241C16" stroke-width="1.4"/>
<line x1="676.3" y1="795.2" x2="564.8" y2="907.9" stroke="#241C16" stroke-width="1.4"/>
<line x1="685.7" y1="796.2" x2="572.8" y2="908.7" stroke="#241C16" stroke-width="1.4"/>
<line x1="695.2" y1="795.2" x2="581.8" y2="908.7" stroke="#241C16" stroke-width="1.4"/>
<line x1="703.7" y1="796.1" x2="591.2" y2="908.2" stroke="#241C16" stroke-width="1.4"/>
<line x1="712.3" y1="796.2" x2="601.2" y2="907.9" stroke="#241C16" stroke-width="1.4"/>
<line x1="722.7" y1="795.1" x2="609.9" y2="907.5" stroke="#241C16" stroke-width="1.4"/>
<line x1="730.4" y1="796.1" x2="619.0" y2="907.5" stroke="#241C16" stroke-width="1.4"/>
<line x1="740.5" y1="796.1" x2="626.8" y2="907.4" stroke="#241C16" stroke-width="1.4"/>
<line x1="748.5" y1="796.0" x2="637.2" y2="908.7" stroke="#241C16" stroke-width="1.4"/>
<line x1="758.1" y1="795.2" x2="645.5" y2="908.8" stroke="#241C16" stroke-width="1.4"/>
<line x1="766.3" y1="796.2" x2="655.0" y2="907.9" stroke="#241C16" stroke-width="1.4"/>
<line x1="776.1" y1="795.0" x2="662.9" y2="907.2" stroke="#241C16" stroke-width="1.4"/>
<line x1="785.2" y1="795.0" x2="671.9" y2="908.3" stroke="#241C16" stroke-width="1.4"/>
<line x1="794.5" y1="795.8" x2="682.0" y2="907.6" stroke="#241C16" stroke-width="1.4"/>
<line x1="803.7" y1="796.2" x2="689.9" y2="907.4" stroke="#241C16" stroke-width="1.4"/>
<line x1="812.6" y1="795.7" x2="700.2" y2="907.5" stroke="#241C16" stroke-width="1.4"/>
<line x1="821.6" y1="795.9" x2="707.8" y2="908.7" stroke="#241C16" stroke-width="1.4"/>
<line x1="830.8" y1="795.2" x2="716.8" y2="907.3" stroke="#241C16" stroke-width="1.4"/>
<line x1="839.3" y1="795.4" x2="725.8" y2="907.7" stroke="#241C16" stroke-width="1.4"/>
<line x1="848.8" y1="796.0" x2="735.5" y2="908.6" stroke="#241C16" stroke-width="1.4"/>
<line x1="857.8" y1="795.1" x2="743.8" y2="908.8" stroke="#241C16" stroke-width="1.4"/>
<line x1="865.7" y1="795.4" x2="752.8" y2="908.8" stroke="#241C16" stroke-width="1.4"/>
</g>
<path d="M274.3,659.1 L750.5,658.9 L751.8,908.3 L273.7,908.3 Z" fill="none" stroke="#241C16" stroke-width="7.0" stroke-linecap="round" stroke-linejoin="round" opacity="0.92"/>
<path d="M273.8,659.4 L754.0,656.0 L750.1,907.5 L272.2,908.2 Z" fill="none" stroke="#241C16" stroke-width="7.0" stroke-linecap="round" stroke-linejoin="round" opacity="0.92"/>
<circle cx="304.0" cy="690.0" r="14.0" fill="#8A5E1E" stroke="#241C16" stroke-width="1.4"/><circle cx="302.8" cy="688.8" r="5.6" fill="#E6BE6A" stroke="none"/>
<circle cx="720.0" cy="690.0" r="14.0" fill="#8A5E1E" stroke="#241C16" stroke-width="1.4"/><circle cx="718.8" cy="688.8" r="5.6" fill="#E6BE6A" stroke="none"/>
<circle cx="720.0" cy="876.0" r="14.0" fill="#8A5E1E" stroke="#241C16" stroke-width="1.4"/><circle cx="718.8" cy="874.8" r="5.6" fill="#E6BE6A" stroke="none"/>
<circle cx="304.0" cy="876.0" r="14.0" fill="#8A5E1E" stroke="#241C16" stroke-width="1.4"/><circle cx="302.8" cy="874.8" r="5.6" fill="#E6BE6A" stroke="none"/>
<path d="M312.4,423.5 L711.8,423.8 L711.5,653.5 L311.7,653.5 Z" fill="#A85A34" stroke="none"/>
<path d="M311.4,424.6 L711.6,423.4 L711.5,437.9 L325.6,438.2 L325.4,654.1 L312.0,654.7 Z" fill="#C9784E" opacity="0.55" stroke="none"/><clipPath id="clip893246"><rect x="312.0" y="550.5" width="400" height="103.5"/></clipPath>
<g clip-path="url(#clip893246)" opacity="0.18">
<line x1="294.0" y1="550.1" x2="190.1" y2="654.6" stroke="#241C16" stroke-width="1.4"/>
<line x1="303.1" y1="550.1" x2="200.3" y2="653.4" stroke="#241C16" stroke-width="1.4"/>
<line x1="312.0" y1="550.7" x2="207.7" y2="654.0" stroke="#241C16" stroke-width="1.4"/>
<line x1="321.4" y1="550.5" x2="217.4" y2="654.5" stroke="#241C16" stroke-width="1.4"/>
<line x1="330.2" y1="550.3" x2="227.1" y2="653.5" stroke="#241C16" stroke-width="1.4"/>
<line x1="339.3" y1="550.6" x2="234.9" y2="653.9" stroke="#241C16" stroke-width="1.4"/>
<line x1="348.5" y1="551.2" x2="244.8" y2="653.3" stroke="#241C16" stroke-width="1.4"/>
<line x1="356.9" y1="550.3" x2="253.6" y2="654.1" stroke="#241C16" stroke-width="1.4"/>
<line x1="365.2" y1="549.8" x2="262.7" y2="654.1" stroke="#241C16" stroke-width="1.4"/>
<line x1="375.3" y1="550.4" x2="272.2" y2="654.2" stroke="#241C16" stroke-width="1.4"/>
<line x1="384.1" y1="550.6" x2="280.3" y2="654.8" stroke="#241C16" stroke-width="1.4"/>
<line x1="392.4" y1="550.1" x2="288.9" y2="654.6" stroke="#241C16" stroke-width="1.4"/>
<line x1="402.4" y1="550.0" x2="298.3" y2="653.3" stroke="#241C16" stroke-width="1.4"/>
<line x1="410.8" y1="551.2" x2="307.4" y2="653.7" stroke="#241C16" stroke-width="1.4"/>
<line x1="419.7" y1="551.2" x2="316.7" y2="654.4" stroke="#241C16" stroke-width="1.4"/>
<line x1="429.1" y1="551.0" x2="326.1" y2="653.9" stroke="#241C16" stroke-width="1.4"/>
<line x1="438.1" y1="551.1" x2="334.2" y2="654.7" stroke="#241C16" stroke-width="1.4"/>
<line x1="446.4" y1="551.2" x2="344.2" y2="654.7" stroke="#241C16" stroke-width="1.4"/>
<line x1="455.6" y1="550.8" x2="352.5" y2="654.5" stroke="#241C16" stroke-width="1.4"/>
<line x1="465.2" y1="550.5" x2="361.9" y2="653.8" stroke="#241C16" stroke-width="1.4"/>
<line x1="473.9" y1="550.1" x2="370.9" y2="654.2" stroke="#241C16" stroke-width="1.4"/>
<line x1="482.7" y1="550.4" x2="378.8" y2="653.3" stroke="#241C16" stroke-width="1.4"/>
<line x1="492.5" y1="549.8" x2="388.3" y2="653.5" stroke="#241C16" stroke-width="1.4"/>
<line x1="500.2" y1="549.8" x2="397.0" y2="653.5" stroke="#241C16" stroke-width="1.4"/>
<line x1="509.3" y1="550.5" x2="406.7" y2="654.2" stroke="#241C16" stroke-width="1.4"/>
<line x1="518.8" y1="550.2" x2="415.8" y2="654.0" stroke="#241C16" stroke-width="1.4"/>
<line x1="528.5" y1="551.3" x2="424.9" y2="653.4" stroke="#241C16" stroke-width="1.4"/>
<line x1="537.4" y1="551.1" x2="433.3" y2="653.2" stroke="#241C16" stroke-width="1.4"/>
<line x1="545.6" y1="550.6" x2="441.9" y2="653.8" stroke="#241C16" stroke-width="1.4"/>
<line x1="555.5" y1="550.1" x2="450.7" y2="654.1" stroke="#241C16" stroke-width="1.4"/>
<line x1="563.3" y1="549.9" x2="459.8" y2="654.0" stroke="#241C16" stroke-width="1.4"/>
<line x1="572.5" y1="550.4" x2="470.0" y2="654.2" stroke="#241C16" stroke-width="1.4"/>
<line x1="582.7" y1="549.8" x2="478.1" y2="654.2" stroke="#241C16" stroke-width="1.4"/>
<line x1="591.0" y1="550.3" x2="486.9" y2="654.3" stroke="#241C16" stroke-width="1.4"/>
<line x1="599.7" y1="550.4" x2="495.7" y2="654.6" stroke="#241C16" stroke-width="1.4"/>
<line x1="608.2" y1="549.9" x2="504.8" y2="654.2" stroke="#241C16" stroke-width="1.4"/>
<line x1="618.0" y1="550.2" x2="514.3" y2="654.3" stroke="#241C16" stroke-width="1.4"/>
<line x1="626.3" y1="550.8" x2="523.4" y2="653.6" stroke="#241C16" stroke-width="1.4"/>
<line x1="636.1" y1="549.9" x2="532.0" y2="654.2" stroke="#241C16" stroke-width="1.4"/>
<line x1="645.2" y1="550.5" x2="541.3" y2="653.6" stroke="#241C16" stroke-width="1.4"/>
<line x1="654.2" y1="550.1" x2="550.8" y2="654.4" stroke="#241C16" stroke-width="1.4"/>
<line x1="662.3" y1="551.3" x2="559.4" y2="654.4" stroke="#241C16" stroke-width="1.4"/>
<line x1="671.9" y1="550.4" x2="567.9" y2="653.6" stroke="#241C16" stroke-width="1.4"/>
<line x1="681.1" y1="551.2" x2="577.5" y2="654.2" stroke="#241C16" stroke-width="1.4"/>
<line x1="690.3" y1="549.9" x2="586.8" y2="653.7" stroke="#241C16" stroke-width="1.4"/>
<line x1="699.0" y1="550.4" x2="596.2" y2="653.6" stroke="#241C16" stroke-width="1.4"/>
<line x1="708.1" y1="551.0" x2="604.6" y2="653.7" stroke="#241C16" stroke-width="1.4"/>
<line x1="716.7" y1="550.7" x2="612.9" y2="654.4" stroke="#241C16" stroke-width="1.4"/>
<line x1="726.0" y1="550.4" x2="622.7" y2="654.6" stroke="#241C16" stroke-width="1.4"/>
<line x1="735.1" y1="550.3" x2="631.2" y2="653.6" stroke="#241C16" stroke-width="1.4"/>
<line x1="744.5" y1="551.2" x2="640.0" y2="654.7" stroke="#241C16" stroke-width="1.4"/>
<line x1="752.8" y1="549.9" x2="648.8" y2="654.7" stroke="#241C16" stroke-width="1.4"/>
<line x1="762.3" y1="550.0" x2="659.0" y2="653.8" stroke="#241C16" stroke-width="1.4"/>
<line x1="770.9" y1="550.4" x2="668.0" y2="654.2" stroke="#241C16" stroke-width="1.4"/>
<line x1="780.7" y1="551.3" x2="676.3" y2="653.2" stroke="#241C16" stroke-width="1.4"/>
<line x1="788.7" y1="550.4" x2="685.0" y2="654.2" stroke="#241C16" stroke-width="1.4"/>
<line x1="798.6" y1="550.3" x2="694.0" y2="653.5" stroke="#241C16" stroke-width="1.4"/>
<line x1="807.4" y1="550.2" x2="704.0" y2="653.6" stroke="#241C16" stroke-width="1.4"/>
<line x1="815.6" y1="550.0" x2="712.2" y2="654.7" stroke="#241C16" stroke-width="1.4"/>
</g>
<path d="M314.2,422.3 L710.7,421.7 L713.5,654.8 L311.8,651.6 Z" fill="none" stroke="#241C16" stroke-width="7.0" stroke-linecap="round" stroke-linejoin="round" opacity="0.92"/>
<path d="M309.7,424.3 L714.0,425.9 L713.0,655.4 L312.3,651.8 Z" fill="none" stroke="#241C16" stroke-width="7.0" stroke-linecap="round" stroke-linejoin="round" opacity="0.92"/>
<circle cx="344.0" cy="456.0" r="14.0" fill="#8A5E1E" stroke="#241C16" stroke-width="1.4"/><circle cx="342.8" cy="454.8" r="5.6" fill="#E6BE6A" stroke="none"/>
<circle cx="680.0" cy="456.0" r="14.0" fill="#8A5E1E" stroke="#241C16" stroke-width="1.4"/><circle cx="678.8" cy="454.8" r="5.6" fill="#E6BE6A" stroke="none"/>
<circle cx="680.0" cy="622.0" r="14.0" fill="#8A5E1E" stroke="#241C16" stroke-width="1.4"/><circle cx="678.8" cy="620.8" r="5.6" fill="#E6BE6A" stroke="none"/>
<circle cx="344.0" cy="622.0" r="14.0" fill="#8A5E1E" stroke="#241C16" stroke-width="1.4"/><circle cx="342.8" cy="620.8" r="5.6" fill="#E6BE6A" stroke="none"/>
<path d="M352.6,209.9 L671.9,210.0 L672.4,419.5 L351.4,419.5 Z" fill="#C08A2E" stroke="none"/>
<path d="M352.2,210.6 L671.8,210.3 L672.0,223.9 L365.6,223.6 L366.1,420.3 L352.3,419.5 Z" fill="#E6BE6A" opacity="0.55" stroke="none"/><clipPath id="clip295245"><rect x="352.0" y="325.5" width="320" height="94.5"/></clipPath>
<g clip-path="url(#clip295245)" opacity="0.18">
<line x1="334.5" y1="325.3" x2="239.4" y2="420.2" stroke="#241C16" stroke-width="1.4"/>
<line x1="342.4" y1="325.8" x2="248.1" y2="419.6" stroke="#241C16" stroke-width="1.4"/>
<line x1="352.4" y1="325.4" x2="258.2" y2="420.6" stroke="#241C16" stroke-width="1.4"/>
<line x1="361.3" y1="326.3" x2="267.0" y2="420.6" stroke="#241C16" stroke-width="1.4"/>
<line x1="370.5" y1="326.3" x2="275.2" y2="419.9" stroke="#241C16" stroke-width="1.4"/>
<line x1="379.7" y1="325.0" x2="284.4" y2="419.5" stroke="#241C16" stroke-width="1.4"/>
<line x1="387.5" y1="325.2" x2="293.6" y2="420.6" stroke="#241C16" stroke-width="1.4"/>
<line x1="397.0" y1="325.8" x2="301.8" y2="420.0" stroke="#241C16" stroke-width="1.4"/>
<line x1="406.3" y1="325.8" x2="312.2" y2="420.5" stroke="#241C16" stroke-width="1.4"/>
<line x1="414.5" y1="325.7" x2="321.2" y2="419.5" stroke="#241C16" stroke-width="1.4"/>
<line x1="423.7" y1="325.9" x2="329.1" y2="420.2" stroke="#241C16" stroke-width="1.4"/>
<line x1="433.2" y1="325.6" x2="337.8" y2="420.7" stroke="#241C16" stroke-width="1.4"/>
<line x1="441.9" y1="325.4" x2="347.6" y2="420.2" stroke="#241C16" stroke-width="1.4"/>
<line x1="450.9" y1="325.0" x2="356.9" y2="419.6" stroke="#241C16" stroke-width="1.4"/>
<line x1="459.7" y1="325.2" x2="365.8" y2="420.8" stroke="#241C16" stroke-width="1.4"/>
<line x1="469.1" y1="325.5" x2="374.7" y2="420.6" stroke="#241C16" stroke-width="1.4"/>
<line x1="477.9" y1="325.7" x2="382.8" y2="420.7" stroke="#241C16" stroke-width="1.4"/>
<line x1="487.2" y1="325.7" x2="392.8" y2="420.3" stroke="#241C16" stroke-width="1.4"/>
<line x1="496.7" y1="325.1" x2="401.5" y2="419.3" stroke="#241C16" stroke-width="1.4"/>
<line x1="504.5" y1="325.8" x2="410.8" y2="419.9" stroke="#241C16" stroke-width="1.4"/>
<line x1="514.7" y1="325.6" x2="419.1" y2="420.7" stroke="#241C16" stroke-width="1.4"/>
<line x1="523.3" y1="325.1" x2="427.9" y2="420.4" stroke="#241C16" stroke-width="1.4"/>
<line x1="532.0" y1="325.8" x2="437.4" y2="419.2" stroke="#241C16" stroke-width="1.4"/>
<line x1="540.9" y1="324.9" x2="447.2" y2="420.1" stroke="#241C16" stroke-width="1.4"/>
<line x1="549.3" y1="326.2" x2="455.4" y2="420.0" stroke="#241C16" stroke-width="1.4"/>
<line x1="559.3" y1="325.9" x2="464.2" y2="419.8" stroke="#241C16" stroke-width="1.4"/>
<line x1="567.3" y1="326.2" x2="474.1" y2="420.0" stroke="#241C16" stroke-width="1.4"/>
<line x1="576.7" y1="326.2" x2="481.7" y2="419.3" stroke="#241C16" stroke-width="1.4"/>
<line x1="586.1" y1="324.9" x2="491.8" y2="420.3" stroke="#241C16" stroke-width="1.4"/>
<line x1="595.2" y1="325.5" x2="500.9" y2="419.6" stroke="#241C16" stroke-width="1.4"/>
<line x1="603.5" y1="325.9" x2="509.8" y2="419.4" stroke="#241C16" stroke-width="1.4"/>
<line x1="613.7" y1="325.1" x2="518.5" y2="419.5" stroke="#241C16" stroke-width="1.4"/>
<line x1="621.5" y1="325.1" x2="527.6" y2="420.0" stroke="#241C16" stroke-width="1.4"/>
<line x1="630.7" y1="325.5" x2="536.5" y2="420.1" stroke="#241C16" stroke-width="1.4"/>
<line x1="640.1" y1="324.7" x2="546.2" y2="419.4" stroke="#241C16" stroke-width="1.4"/>
<line x1="649.1" y1="325.9" x2="553.7" y2="419.5" stroke="#241C16" stroke-width="1.4"/>
<line x1="657.3" y1="324.7" x2="564.2" y2="419.4" stroke="#241C16" stroke-width="1.4"/>
<line x1="667.1" y1="325.7" x2="573.2" y2="419.4" stroke="#241C16" stroke-width="1.4"/>
<line x1="675.8" y1="324.8" x2="581.8" y2="420.5" stroke="#241C16" stroke-width="1.4"/>
<line x1="685.2" y1="326.2" x2="591.2" y2="420.3" stroke="#241C16" stroke-width="1.4"/>
<line x1="693.7" y1="325.6" x2="599.9" y2="419.4" stroke="#241C16" stroke-width="1.4"/>
<line x1="703.0" y1="325.8" x2="608.2" y2="420.5" stroke="#241C16" stroke-width="1.4"/>
<line x1="712.4" y1="326.0" x2="617.9" y2="420.7" stroke="#241C16" stroke-width="1.4"/>
<line x1="721.0" y1="325.8" x2="626.5" y2="419.3" stroke="#241C16" stroke-width="1.4"/>
<line x1="730.4" y1="326.0" x2="635.6" y2="420.7" stroke="#241C16" stroke-width="1.4"/>
<line x1="739.6" y1="325.4" x2="645.0" y2="419.7" stroke="#241C16" stroke-width="1.4"/>
<line x1="748.3" y1="325.0" x2="653.5" y2="419.5" stroke="#241C16" stroke-width="1.4"/>
<line x1="757.1" y1="324.9" x2="663.2" y2="420.4" stroke="#241C16" stroke-width="1.4"/>
<line x1="765.7" y1="326.2" x2="671.0" y2="419.7" stroke="#241C16" stroke-width="1.4"/>
<line x1="774.3" y1="325.1" x2="680.0" y2="419.6" stroke="#241C16" stroke-width="1.4"/>
</g>
<path d="M352.7,209.9 L674.3,208.2 L674.0,420.6 L351.5,418.9 Z" fill="none" stroke="#241C16" stroke-width="7.0" stroke-linecap="round" stroke-linejoin="round" opacity="0.92"/>
<path d="M349.8,208.0 L673.3,210.6 L670.4,417.8 L353.9,420.9 Z" fill="none" stroke="#241C16" stroke-width="7.0" stroke-linecap="round" stroke-linejoin="round" opacity="0.92"/>
<circle cx="384.0" cy="242.0" r="14.0" fill="#8A5E1E" stroke="#241C16" stroke-width="1.4"/><circle cx="382.8" cy="240.8" r="5.6" fill="#E6BE6A" stroke="none"/>
<circle cx="640.0" cy="242.0" r="14.0" fill="#8A5E1E" stroke="#241C16" stroke-width="1.4"/><circle cx="638.8" cy="240.8" r="5.6" fill="#E6BE6A" stroke="none"/>
<circle cx="640.0" cy="388.0" r="14.0" fill="#8A5E1E" stroke="#241C16" stroke-width="1.4"/><circle cx="638.8" cy="386.8" r="5.6" fill="#E6BE6A" stroke="none"/>
<circle cx="384.0" cy="388.0" r="14.0" fill="#8A5E1E" stroke="#241C16" stroke-width="1.4"/><circle cx="382.8" cy="386.8" r="5.6" fill="#E6BE6A" stroke="none"/>
<path d="M391.9,6.3 L632.1,5.9 L631.8,205.9 L392.4,206.2 Z" fill="#A85A34" stroke="none"/>
<path d="M392.6,6.3 L632.5,6.4 L632.3,19.7 L405.5,20.5 L405.4,206.1 L392.7,206.4 Z" fill="#C9784E" opacity="0.55" stroke="none"/><clipPath id="clip602784"><rect x="392.0" y="116.00000000000001" width="240" height="90.0"/></clipPath>
<g clip-path="url(#clip602784)" opacity="0.18">
<line x1="374.6" y1="116.5" x2="284.1" y2="206.2" stroke="#241C16" stroke-width="1.4"/>
<line x1="382.2" y1="115.3" x2="292.6" y2="206.6" stroke="#241C16" stroke-width="1.4"/>
<line x1="391.6" y1="116.7" x2="301.2" y2="205.3" stroke="#241C16" stroke-width="1.4"/>
<line x1="400.3" y1="115.8" x2="311.0" y2="206.5" stroke="#241C16" stroke-width="1.4"/>
<line x1="409.6" y1="115.7" x2="320.5" y2="206.4" stroke="#241C16" stroke-width="1.4"/>
<line x1="419.2" y1="115.8" x2="329.2" y2="206.4" stroke="#241C16" stroke-width="1.4"/>
<line x1="428.2" y1="116.7" x2="337.9" y2="206.7" stroke="#241C16" stroke-width="1.4"/>
<line x1="437.3" y1="115.6" x2="347.7" y2="206.6" stroke="#241C16" stroke-width="1.4"/>
<line x1="446.0" y1="115.2" x2="355.6" y2="205.7" stroke="#241C16" stroke-width="1.4"/>
<line x1="455.0" y1="115.7" x2="365.7" y2="206.8" stroke="#241C16" stroke-width="1.4"/>
<line x1="463.2" y1="116.2" x2="374.4" y2="205.4" stroke="#241C16" stroke-width="1.4"/>
<line x1="472.7" y1="116.6" x2="383.1" y2="206.3" stroke="#241C16" stroke-width="1.4"/>
<line x1="482.0" y1="116.1" x2="392.6" y2="205.8" stroke="#241C16" stroke-width="1.4"/>
<line x1="490.3" y1="115.3" x2="400.7" y2="206.2" stroke="#241C16" stroke-width="1.4"/>
<line x1="500.4" y1="115.6" x2="410.7" y2="206.4" stroke="#241C16" stroke-width="1.4"/>
<line x1="509.4" y1="115.9" x2="419.6" y2="206.4" stroke="#241C16" stroke-width="1.4"/>
<line x1="518.7" y1="116.6" x2="427.9" y2="206.1" stroke="#241C16" stroke-width="1.4"/>
<line x1="527.3" y1="115.9" x2="436.7" y2="205.9" stroke="#241C16" stroke-width="1.4"/>
<line x1="535.8" y1="115.6" x2="446.0" y2="206.7" stroke="#241C16" stroke-width="1.4"/>
<line x1="545.1" y1="115.8" x2="455.4" y2="205.9" stroke="#241C16" stroke-width="1.4"/>
<line x1="554.1" y1="116.2" x2="464.5" y2="206.7" stroke="#241C16" stroke-width="1.4"/>
<line x1="563.4" y1="116.1" x2="472.6" y2="206.0" stroke="#241C16" stroke-width="1.4"/>
<line x1="571.8" y1="116.0" x2="481.3" y2="206.6" stroke="#241C16" stroke-width="1.4"/>
<line x1="580.6" y1="116.7" x2="491.4" y2="206.7" stroke="#241C16" stroke-width="1.4"/>
<line x1="589.7" y1="115.7" x2="499.3" y2="206.1" stroke="#241C16" stroke-width="1.4"/>
<line x1="599.5" y1="116.7" x2="508.4" y2="206.4" stroke="#241C16" stroke-width="1.4"/>
<line x1="607.7" y1="115.6" x2="517.3" y2="205.3" stroke="#241C16" stroke-width="1.4"/>
<line x1="617.4" y1="116.5" x2="526.6" y2="205.7" stroke="#241C16" stroke-width="1.4"/>
<line x1="625.2" y1="116.1" x2="536.2" y2="205.2" stroke="#241C16" stroke-width="1.4"/>
<line x1="635.5" y1="116.0" x2="544.2" y2="206.3" stroke="#241C16" stroke-width="1.4"/>
<line x1="644.5" y1="116.4" x2="553.8" y2="206.6" stroke="#241C16" stroke-width="1.4"/>
<line x1="652.4" y1="115.7" x2="563.4" y2="205.5" stroke="#241C16" stroke-width="1.4"/>
<line x1="661.2" y1="116.0" x2="572.4" y2="206.4" stroke="#241C16" stroke-width="1.4"/>
<line x1="670.5" y1="115.5" x2="580.2" y2="205.5" stroke="#241C16" stroke-width="1.4"/>
<line x1="680.6" y1="116.7" x2="589.5" y2="205.8" stroke="#241C16" stroke-width="1.4"/>
<line x1="689.3" y1="115.2" x2="598.3" y2="205.4" stroke="#241C16" stroke-width="1.4"/>
<line x1="698.8" y1="115.7" x2="608.7" y2="206.6" stroke="#241C16" stroke-width="1.4"/>
<line x1="706.2" y1="115.7" x2="616.5" y2="206.3" stroke="#241C16" stroke-width="1.4"/>
<line x1="716.4" y1="115.4" x2="626.7" y2="206.4" stroke="#241C16" stroke-width="1.4"/>
<line x1="724.6" y1="116.5" x2="634.3" y2="206.1" stroke="#241C16" stroke-width="1.4"/>
</g>
<path d="M394.1,4.0 L633.8,5.0 L632.8,205.4 L391.3,208.0 Z" fill="none" stroke="#241C16" stroke-width="7.0" stroke-linecap="round" stroke-linejoin="round" opacity="0.92"/>
<path d="M393.9,4.4 L633.7,4.9 L633.4,207.1 L394.0,204.3 Z" fill="none" stroke="#241C16" stroke-width="7.0" stroke-linecap="round" stroke-linejoin="round" opacity="0.92"/>
<circle cx="424.0" cy="38.0" r="14.0" fill="#8A5E1E" stroke="#241C16" stroke-width="1.4"/><circle cx="422.8" cy="36.8" r="5.6" fill="#E6BE6A" stroke="none"/>
<circle cx="600.0" cy="38.0" r="14.0" fill="#8A5E1E" stroke="#241C16" stroke-width="1.4"/><circle cx="598.8" cy="36.8" r="5.6" fill="#E6BE6A" stroke="none"/>
<circle cx="600.0" cy="174.0" r="14.0" fill="#8A5E1E" stroke="#241C16" stroke-width="1.4"/><circle cx="598.8" cy="172.8" r="5.6" fill="#E6BE6A" stroke="none"/>
<circle cx="424.0" cy="174.0" r="14.0" fill="#8A5E1E" stroke="#241C16" stroke-width="1.4"/><circle cx="422.8" cy="172.8" r="5.6" fill="#E6BE6A" stroke="none"/>
</g><circle cx="819.2" cy="184.3" r="70.0" fill="#F3ECDD" opacity="0.55" stroke="none"/><circle cx="880.6" cy="307.2" r="50.0" fill="#F3ECDD" opacity="0.4" stroke="none"/><circle cx="931.8" cy="409.6" r="36.0" fill="#F3ECDD" opacity="0.28" stroke="none"/></svg>
