<svg xmlns="http://www.w3.org/2000/svg" width="1024" height="1024" viewBox="0 0 1024 1024">
<rect width="1024" height="1024" fill="#E7D7B1"/><clipPath id="clip831657"><rect x="0" y="0" width="1024" height="1024"/></clipPath>
<g clip-path="url(#clip831657)" opacity="0.06">
<line x1="-51.3" y1="0.4" x2="-1076.1" y2="1023.2" stroke="#6E3A20" stroke-width="1.4"/>
<line x1="-26.6" y1="-0.8" x2="-1049.9" y2="1024.4" stroke="#6E3A20" stroke-width="1.4"/>
<line x1="-0.6" y1="-0.3" x2="-1024.1" y2="1023.5" stroke="#6E3A20" stroke-width="1.4"/>
<line x1="26.7" y1="0.5" x2="-997.4" y2="1024.0" stroke="#6E3A20" stroke-width="1.4"/>
<line x1="52.6" y1="-0.3" x2="-972.1" y2="1024.3" stroke="#6E3A20" stroke-width="1.4"/>
<line x1="77.9" y1="0.0" x2="-946.0" y2="1024.8" stroke="#6E3A20" stroke-width="1.4"/>
<line x1="104.6" y1="-0.2" x2="-920.4" y2="1024.7" stroke="#6E3A20" stroke-width="1.4"/>
<line x1="129.6" y1="-0.0" x2="-893.6" y2="1024.0" stroke="#6E3A20" stroke-width="1.4"/>
<line x1="156.1" y1="-0.6" x2="-868.3" y2="1023.3" stroke="#6E3A20" stroke-width="1.4"/>
<line x1="181.2" y1="-0.4" x2="-842.6" y2="1024.0" stroke="#6E3A20" stroke-width="1.4"/>
<line x1="208.8" y1="0.1" x2="-816.1" y2="1023.2" stroke="#6E3A20" stroke-width="1.4"/>
<line x1="234.0" y1="0.4" x2="-789.6" y2="1024.1" stroke="#6E3A20" stroke-width="1.4"/>
<line x1="260.6" y1="0.2" x2="-763.9" y2="1024.2" stroke="#6E3A20" stroke-width="1.4"/>
<line x1="286.1" y1="-0.1" x2="-737.8" y2="1024.5" stroke="#6E3A20" stroke-width="1.4"/>
<line x1="312.0" y1="-0.5" x2="-711.6" y2="1024.3" stroke="#6E3A20" stroke-width="1.4"/>
<line x1="338.6" y1="-0.0" x2="-686.7" y2="1023.5" stroke="#6E3A20" stroke-width="1.4"/>
<line x1="363.3" y1="-0.6" x2="-659.9" y2="1024.0" stroke="#6E3A20" stroke-width="1.4"/>
<line x1="389.3" y1="-0.1" x2="-634.7" y2="1024.6" stroke="#6E3A20" stroke-width="1.4"/>
<line x1="415.9" y1="-0.8" x2="-608.1" y2="1023.9" stroke="#6E3A20" stroke-width="1.4"/>
<line x1="442.7" y1="-0.2" x2="-582.5" y2="1024.4" stroke="#6E3A20" stroke-width="1.4"/>
<line x1="467.7" y1="0.5" x2="-556.5" y2="1023.7" stroke="#6E3A20" stroke-width="1.4"/>
<line x1="494.8" y1="0.3" x2="-529.2" y2="1024.2" stroke="#6E3A20" stroke-width="1.4"/>
<line x1="519.9" y1="-0.4" x2="-504.3" y2="1023.9" stroke="#6E3A20" stroke-width="1.4"/>
<line x1="546.0" y1="-0.5" x2="-478.6" y2="1023.6" stroke="#6E3A20" stroke-width="1.4"/>
<line x1="571.7" y1="-0.5" x2="-452.4" y2="1023.6" stroke="#6E3A20" stroke-width="1.4"/>
<line x1="598.6" y1="0.2" x2="-425.4" y2="1023.4" stroke="#6E3A20" stroke-width="1.4"/>
<line x1="624.2" y1="-0.1" x2="-400.1" y2="1023.5" stroke="#6E3A20" stroke-width="1.4"/>
<line x1="649.2" y1="0.5" x2="-374.4" y2="1023.4" stroke="#6E3A20" stroke-width="1.4"/>
<line x1="676.0" y1="-0.1" x2="-347.3" y2="1023.7" stroke="#6E3A20" stroke-width="1.4"/>
<line x1="701.3" y1="0.3" x2="-322.8" y2="1024.0" stroke="#6E3A20" stroke-width="1.4"/>
<line x1="728.0" y1="0.2" x2="-296.2" y2="1024.6" stroke="#6E3A20" stroke-width="1.4"/>
<line x1="753.5" y1="-0.5" x2="-270.6" y2="1024.6" stroke="#6E3A20" stroke-width="1.4"/>
<line x1="779.7" y1="0.8" x2="-243.6" y2="1023.3" stroke="#6E3A20" stroke-width="1.4"/>
<line x1="805.9" y1="-0.8" x2="-217.4" y2="1023.5" stroke="#6E3A20" stroke-width="1.4"/>
<line x1="832.7" y1="0.6" x2="-191.5" y2="1024.2" stroke="#6E3A20" stroke-width="1.4"/>
<line x1="858.6" y1="0.1" x2="-166.3" y2="1024.6" stroke="#6E3A20" stroke-width="1.4"/>
<line x1="884.6" y1="-0.2" x2="-140.3" y2="1023.5" stroke="#6E3A20" stroke-width="1.4"/>
<line x1="910.0" y1="-0.3" x2="-114.1" y2="1024.5" stroke="#6E3A20" stroke-width="1.4"/>
<line x1="936.4" y1="0.2" x2="-87.7" y2="1023.9" stroke="#6E3A20" stroke-width="1.4"/>
<line x1="962.5" y1="-0.3" x2="-62.8" y2="1024.2" stroke="#6E3A20" stroke-width="1.4"/>
<line x1="988.5" y1="0.8" x2="-35.9" y2="1024.0" stroke="#6E3A20" stroke-width="1.4"/>
<line x1="1013.8" y1="-0.1" x2="-10.3" y2="1024.4" stroke="#6E3A20" stroke-width="1.4"/>
<line x1="1040.8" y1="-0.7" x2="15.6" y2="1023.9" stroke="#6E3A20" stroke-width="1.4"/>
<line x1="1066.4" y1="0.6" x2="41.9" y2="1023.4" stroke="#6E3A20" stroke-width="1.4"/>
<line x1="1091.5" y1="0.7" x2="67.9" y2="1024.1" stroke="#6E3A20" stroke-width="1.4"/>
<line x1="1118.4" y1="-0.8" x2="93.3" y2="1023.6" stroke="#6E3A20" stroke-width="1.4"/>
<line x1="1144.8" y1="0.6" x2="119.6" y2="1024.4" stroke="#6E3A20" stroke-width="1.4"/>
<line x1="1170.6" y1="-0.7" x2="145.6" y2="1024.2" stroke="#6E3A20" stroke-width="1.4"/>
<line x1="1195.3" y1="-0.7" x2="171.5" y2="1023.8" stroke="#6E3A20" stroke-width="1.4"/>
<line x1="1222.5" y1="-0.5" x2="198.7" y2="1023.4" stroke="#6E3A20" stroke-width="1.4"/>
<line x1="1247.3" y1="0.1" x2="224.5" y2="1023.3" stroke="#6E3A20" stroke-width="1.4"/>
<line x1="1274.4" y1="0.5" x2="249.7" y2="1024.2" stroke="#6E3A20" stroke-width="1.4"/>
<line x1="1300.8" y1="0.1" x2="276.2" y2="1024.6" stroke="#6E3A20" stroke-width="1.4"/>
<line x1="1326.5" y1="-0.5" x2="301.5" y2="1024.1" stroke="#6E3A20" stroke-width="1.4"/>
<line x1="1352.2" y1="-0.7" x2="327.9" y2="1023.4" stroke="#6E3A20" stroke-width="1.4"/>
<line x1="1377.9" y1="0.7" x2="354.6" y2="1024.0" stroke="#6E3A20" stroke-width="1.4"/>
<line x1="1403.9" y1="0.7" x2="380.2" y2="1023.8" stroke="#6E3A20" stroke-width="1.4"/>
<line x1="1429.2" y1="-0.6" x2="405.8" y2="1024.7" stroke="#6E3A20" stroke-width="1.4"/>
<line x1="1456.5" y1="0.5" x2="432.6" y2="1023.5" stroke="#6E3A20" stroke-width="1.4"/>
<line x1="1482.1" y1="0.0" x2="457.5" y2="1023.9" stroke="#6E3A20" stroke-width="1.4"/>
<line x1="1507.9" y1="-0.2" x2="484.2" y2="1024.6" stroke="#6E3A20" stroke-width="1.4"/>
<line x1="1533.7" y1="-0.2" x2="510.5" y2="1024.2" stroke="#6E3A20" stroke-width="1.4"/>
<line x1="1559.5" y1="0.1" x2="536.1" y2="1023.5" stroke="#6E3A20" stroke-width="1.4"/>
<line x1="1585.5" y1="-0.5" x2="561.7" y2="1023.7" stroke="#6E3A20" stroke-width="1.4"/>
<line x1="1611.8" y1="0.8" x2="587.3" y2="1024.6" stroke="#6E3A20" stroke-width="1.4"/>
<line x1="1638.5" y1="0.8" x2="613.3" y2="1024.0" stroke="#6E3A20" stroke-width="1.4"/>
<line x1="1664.2" y1="-0.2" x2="639.5" y2="1024.1" stroke="#6E3A20" stroke-width="1.4"/>
<line x1="1690.6" y1="-0.1" x2="666.5" y2="1024.3" stroke="#6E3A20" stroke-width="1.4"/>
<line x1="1715.8" y1="0.5" x2="691.7" y2="1024.6" stroke="#6E3A20" stroke-width="1.4"/>
<line x1="1742.3" y1="0.1" x2="717.9" y2="1024.5" stroke="#6E3A20" stroke-width="1.4"/>
<line x1="1767.6" y1="-0.6" x2="744.7" y2="1024.8" stroke="#6E3A20" stroke-width="1.4"/>
<line x1="1794.2" y1="0.4" x2="769.3" y2="1023.3" stroke="#6E3A20" stroke-width="1.4"/>
<line x1="1819.2" y1="0.5" x2="796.0" y2="1024.1" stroke="#6E3A20" stroke-width="1.4"/>
<line x1="1846.6" y1="-0.2" x2="821.4" y2="1023.9" stroke="#6E3A20" stroke-width="1.4"/>
<line x1="1871.5" y1="0.1" x2="848.6" y2="1024.2" stroke="#6E3A20" stroke-width="1.4"/>
<line x1="1897.7" y1="0.5" x2="873.3" y2="1024.0" stroke="#6E3A20" stroke-width="1.4"/>
<line x1="1924.5" y1="-0.0" x2="900.7" y2="1024.2" stroke="#6E3A20" stroke-width="1.4"/>
<line x1="1950.5" y1="-0.8" x2="926.0" y2="1023.7" stroke="#6E3A20" stroke-width="1.4"/>
<line x1="1976.5" y1="0.5" x2="952.8" y2="1024.1" stroke="#6E3A20" stroke-width="1.4"/>
<line x1="2002.1" y1="-0.5" x2="977.8" y2="1023.4" stroke="#6E3A20" stroke-width="1.4"/>
<line x1="2027.3" y1="0.2" x2="1004.1" y2="1023.7" stroke="#6E3A20" stroke-width="1.4"/>
<line x1="2054.3" y1="-0.4" x2="1029.9" y2="1024.8" stroke="#6E3A20" stroke-width="1.4"/>
</g>
<path d="M977.0,306.7 L1035.4,340.9 L1029.7,374.3 L963.8,386.9 L953.0,411.7 L991.1,466.6 L972.1,493.9 L906.7,477.4 L886.9,494.8 L896.4,560.7 L867.6,577.0 L816.9,534.3 L790.3,540.6 L771.1,605.1 L737.8,606.7 L710.7,546.2 L684.4,541.3 L638.3,590.1 L607.2,576.9 L609.4,510.8 L587.2,494.5 L525.1,519.1 L502.6,494.5 L534.2,434.5 L521.5,411.0 L454.0,406.2 L444.3,374.1 L498.2,333.8 L496.8,307.8 L439.2,274.0 L444.5,240.7 L510.5,228.5 L521.6,202.8 L482.9,147.3 L502.7,120.2 L568.1,137.2 L587.2,119.5 L577.4,53.0 L607.6,36.8 L657.5,80.4 L684.3,73.8 L703.5,8.9 L737.7,6.7 L764.1,68.3 L791.2,73.1 L836.8,23.5 L867.4,37.3 L865.0,104.3 L887.4,119.1 L949.1,95.3 L971.4,120.6 L940.4,179.8 L954.1,203.2 L1020.7,208.5 L1029.4,240.3 L976.1,279.9 Z" fill="#C08A2E" opacity="0.30" stroke="none"/><path d="M197.7,519.0 L498.4,519.3 L498.5,819.5 L197.8,819.7 Z" fill="#C08A2E" stroke="none"/>
<path d="M197.2,520.6 L497.3,521.3 L496.1,817.2 L199.4,821.1 Z" fill="none" stroke="#241C16" stroke-width="9.0" stroke-linecap="round" stroke-linejoin="round" opacity="0.92"/>
<path d="M196.9,520.4 L498.0,518.2 L498.0,820.9 L196.2,817.2 Z" fill="none" stroke="#241C16" stroke-width="9.0" stroke-linecap="round" stroke-linejoin="round" opacity="0.92"/>
<circle cx="224.2" cy="545.2" r="11.0" fill="#8A5E1E" stroke="#241C16" stroke-width="1.4"/><circle cx="223.0" cy="544.0" r="4.4" fill="#E6BE6A" stroke="none"/>
<circle cx="472.2" cy="545.2" r="11.0" fill="#8A5E1E" stroke="#241C16" stroke-width="1.4"/><circle cx="471.0" cy="544.0" r="4.4" fill="#E6BE6A" stroke="none"/>
<circle cx="224.2" cy="793.2" r="11.0" fill="#8A5E1E" stroke="#241C16" stroke-width="1.4"/><circle cx="223.0" cy="792.0" r="4.4" fill="#E6BE6A" stroke="none"/>
<circle cx="472.2" cy="793.2" r="11.0" fill="#8A5E1E" stroke="#241C16" stroke-width="1.4"/><circle cx="471.0" cy="792.0" r="4.4" fill="#E6BE6A" stroke="none"/>
<path d="M197.5,229.3 L447.2,229.3 L447.3,479.5 L197.7,479.7 Z" fill="#A85A34" stroke="none"/>
<path d="M199.0,227.9 L447.9,227.6 L446.9,479.3 L196.2,480.8 Z" fill="none" stroke="#241C16" stroke-width="9.0" stroke-linecap="round" stroke-linejoin="round" opacity="0.92"/>
<path d="M195.2,227.6 L447.8,229.2 L448.4,479.7 L196.7,477.7 Z" fill="none" stroke="#241C16" stroke-width="9.0" stroke-linecap="round" stroke-linejoin="round" opacity="0.92"/>
<circle cx="223.2" cy="255.2" r="11.0" fill="#8A5E1E" stroke="#241C16" stroke-width="1.4"/><circle cx="222.0" cy="254.0" r="4.4" fill="#E6BE6A" stroke="none"/>
<circle cx="421.2" cy="255.2" r="11.0" fill="#8A5E1E" stroke="#241C16" stroke-width="1.4"/><circle cx="420.0" cy="254.0" r="4.4" fill="#E6BE6A" stroke="none"/>
<circle cx="223.2" cy="453.2" r="11.0" fill="#8A5E1E" stroke="#241C16" stroke-width="1.4"/><circle cx="222.0" cy="452.0" r="4.4" fill="#E6BE6A" stroke="none"/>
<circle cx="421.2" cy="453.2" r="11.0" fill="#8A5E1E" stroke="#241C16" stroke-width="1.4"/><circle cx="420.0" cy="452.0" r="4.4" fill="#E6BE6A" stroke="none"/>
<path d="M287.4,-0.4 L477.5,-0.5 L477.3,189.0 L286.9,188.8 Z" fill="#C08A2E" stroke="none"/>
<path d="M289.2,-2.9 L479.3,-1.6 L479.2,190.8 L286.3,189.7 Z" fill="none" stroke="#241C16" stroke-width="9.0" stroke-linecap="round" stroke-linejoin="round" opacity="0.92"/>
<path d="M288.6,0.1 L478.5,-2.1 L478.4,189.7 L289.3,190.1 Z" fill="none" stroke="#241C16" stroke-width="9.0" stroke-linecap="round" stroke-linejoin="round" opacity="0.92"/>
<circle cx="313.2" cy="25.2" r="11.0" fill="#8A5E1E" stroke="#241C16" stroke-width="1.4"/><circle cx="312.0" cy="24.0" r="4.4" fill="#E6BE6A" stroke="none"/>
<circle cx="451.2" cy="25.2" r="11.0" fill="#8A5E1E" stroke="#241C16" stroke-width="1.4"/><circle cx="450.0" cy="24.0" r="4.4" fill="#E6BE6A" stroke="none"/>
<circle cx="313.2" cy="163.2" r="11.0" fill="#8A5E1E" stroke="#241C16" stroke-width="1.4"/><circle cx="312.0" cy="162.0" r="4.4" fill="#E6BE6A" stroke="none"/>
<circle cx="451.2" cy="163.2" r="11.0" fill="#8A5E1E" stroke="#241C16" stroke-width="1.4"/><circle cx="450.0" cy="162.0" r="4.4" fill="#E6BE6A" stroke="none"/>
</svg>
