<svg xmlns="http://www.w3.org/2000/svg" width="192" height="192" viewBox="0 0 192 192">
<path d="M158.5,95.9 L175.2,108.8 L173.1,121.0 L152.5,125.1 L147.1,132.8 L153.1,153.3 L143.0,161.2 L124.8,151.8 L115.8,156.1 L109.0,175.9 L96.5,176.6 L86.4,158.1 L76.0,156.1 L59.8,167.9 L49.1,161.7 L51.4,140.9 L44.9,133.2 L23.8,132.6 L18.9,121.0 L33.4,106.4 L33.4,95.8 L16.9,83.0 L19.1,70.6 L39.7,67.1 L44.8,59.2 L39.0,39.6 L48.2,31.3 L67.6,39.8 L76.3,35.6 L82.9,16.7 L96.1,15.0 L105.3,34.3 L115.7,36.0 L133.0,24.2 L143.3,30.6 L140.4,51.9 L147.1,59.6 L168.1,59.8 L173.0,71.4 L157.8,85.7 Z" fill="#C08A2E" stroke="none"/>
<path d="M160.1,94.5 L175.8,110.2 L173.6,121.2 L152.0,125.4 L147.6,131.5 L154.6,153.2 L144.7,161.7 L123.9,152.5 L116.8,155.3 L107.3,176.7 L96.1,177.8 L85.6,158.3 L75.9,155.0 L60.3,169.4 L47.1,162.2 L50.3,138.9 L46.7,134.1 L23.5,134.1 L20.4,121.2 L34.1,105.7 L33.9,97.2 L16.4,84.2 L18.9,72.1 L39.8,65.9 L44.1,59.9 L39.2,39.7 L47.9,29.4 L67.9,40.5 L75.5,37.3 L82.3,16.2 L94.5,14.1 L105.8,34.1 L115.9,34.7 L132.0,25.7 L143.0,31.0 L140.5,52.5 L146.7,58.2 L168.9,60.0 L174.2,72.6 L158.4,87.2 Z" fill="none" stroke="#241C16" stroke-width="3.0" stroke-linecap="round" stroke-linejoin="round" opacity="0.92"/>
<path d="M157.4,97.5 L177.0,108.2 L171.8,121.3 L153.1,125.8 L145.5,131.9 L152.3,153.7 L143.1,162.2 L125.7,152.2 L114.8,155.3 L108.9,175.8 L96.3,177.5 L87.7,157.1 L77.3,156.8 L58.7,169.3 L50.0,159.6 L51.4,139.3 L43.7,132.0 L23.8,133.7 L18.2,120.1 L34.8,106.3 L32.7,97.5 L16.3,83.5 L19.7,71.3 L38.4,66.2 L44.2,59.9 L40.3,37.8 L47.6,31.2 L66.9,38.4 L75.9,37.3 L84.0,16.2 L96.4,14.4 L105.9,33.3 L115.6,35.1 L131.2,23.6 L144.3,29.8 L139.7,52.1 L146.8,60.2 L167.4,58.8 L172.5,69.8 L158.1,87.4 Z" fill="none" stroke="#241C16" stroke-width="3.0" stroke-linecap="round" stroke-linejoin="round" opacity="0.92"/>
<circle cx="96.0" cy="96.0" r="34.56" fill="#8A5E1E" stroke="#241C16" stroke-width="2.6"/><circle cx="96.0" cy="96.0" r="13.440000000000001" fill="#E7D7B1" stroke="#241C16" stroke-width="1.8"/><circle cx="147.8" cy="96.0" r="3.6" fill="#8A5E1E" stroke="#241C16" stroke-width="1.4"/><circle cx="146.6" cy="94.8" r="1.4" fill="#E6BE6A" stroke="none"/>
<circle cx="121.9" cy="140.9" r="3.6" fill="#8A5E1E" stroke="#241C16" stroke-width="1.4"/><circle cx="120.7" cy="139.7" r="1.4" fill="#E6BE6A" stroke="none"/>
<circle cx="70.1" cy="140.9" r="3.6" fill="#8A5E1E" stroke="#241C16" stroke-width="1.4"/><circle cx="68.9" cy="139.7" r="1.4" fill="#E6BE6A" stroke="none"/>
<circle cx="44.2" cy="96.0" r="3.6" fill="#8A5E1E" stroke="#241C16" stroke-width="1.4"/><circle cx="43.0" cy="94.8" r="1.4" fill="#E6BE6A" stroke="none"/>
<circle cx="70.1" cy="51.1" r="3.6" fill="#8A5E1E" stroke="#241C16" stroke-width="1.4"/><circle cx="68.9" cy="49.9" r="1.4" fill="#E6BE6A" stroke="none"/>
<circle cx="121.9" cy="51.1" r="3.6" fill="#8A5E1E" stroke="#241C16" stroke-width="1.4"/><circle cx="120.7" cy="49.9" r="1.4" fill="#E6BE6A" stroke="none"/>
</svg>
